<svg xmlns="http://www.w3.org/2000/svg" viewBox="-1024 -1024 2048 2048"><line stroke="black" x1="-1024" x2="1024" y1="0" y2="0"></line><line stroke="black" x1="0" x2="0" y1="-1024" y2="1024"></line><defs><marker id="dimension-arrow-head" markerHeight="20" markerWidth="20" orient="auto-start-reverse" refX="20" refY="5"><path d="M 0 0 v 10 L 20 5 Z " fill="red"></path></marker></defs><circle cx="0" cy="0" fill="transparent" r="512" stroke="blue" stroke-dasharray="4" stroke-width="2"></circle><polygon fill="transparent" points="512.0 0.0 256.00000000000006 443.40500673763256 -255.9999999999999 443.4050067376326 -512.0 6.270191611634448e-14 -256.0000000000002 -443.40500673763245 256.00000000000006 -443.40500673763256" stroke="blue" stroke-dasharray="4" stroke-width="2"></polygon><polyline fill="transparent" points="256.00000000000006 443.40500673763256 -256.0000000000002 -443.40500673763245" stroke="blue" stroke-dasharray="4" stroke-width="2"></polyline><line stroke="blue" stroke-dasharray="4" stroke-width="2" x1="0" x2="-256.0000000000002" y1="0" y2="443.40500673763245"></line><polygon fill="transparent" points="-319.9999999999999 -332.55375505322445 -191.9999999999999 -554.2562584220408 384.00000000000006 443.40500673763256 128.00000000000006 443.40500673763256 -4.072608916703642e-14 221.70250336881628 -128.00000000000023 443.40500673763245 -256.0000000000002 443.40500673763245 -320.0000000000002 332.55375505322434 -128.0 0.0" stroke="green" stroke-dasharray="4" stroke-width="4"></polygon><polygon fill="transparent" points="-303.9999999999999 -304.8409421321224 -175.9999999999999 -526.5434455009388 384.00000000000006 443.40500673763256 128.00000000000006 443.40500673763256 -4.072608916703642e-14 221.70250336881628 -128.00000000000023 443.40500673763245 -256.0000000000002 443.40500673763245 -320.0000000000002 332.55375505322434 -128.0 0.0" stroke="green" stroke-width="4"></polygon><line stroke="red" stroke-width="1" x1="256.00000000000006" x2="810.2562584220407" y1="443.40500673763256" y2="123.40500673763239"></line> <line stroke="red" stroke-width="1" x1="-256.0000000000002" x2="298.25625842204033" y1="-443.40500673763245" y2="-763.4050067376327"></line> <line marker-end="url(#dimension-arrow-head)" marker-start="url(#dimension-arrow-head)" stroke="red" stroke-width="1" x1="788.0860080851589" x2="276.0860080851587" y1="136.2050067376324" y2="-750.6050067376326"></line> <path d="M 792.5200581525353 133.6450067376324 L 280.52005815253506 -753.1650067376327"></path> <g transform="translate(-3.53759765625 12.0) translate(532.0860080851588 -307.2000000000001) rotate(59.999999999999986 3.53759765625 -12.0) rotate(0 3.53759765625 -12.0) translate(0 -15.0)"><path d="M 5.7861328125 0.0 Q 4.798828125 0.0 4.798828125 -0.986328125 L 4.798828125 -21.6728515625 L 5.6923828125 -21.802734375 L 1.65234375 -17.85546875 Q 1.3173828125 -17.5205078125 0.982421875 -17.501953125 Q 0.6474609375 -17.4833984375 0.3115234375 -17.818359375 Q -0.3212890625 -18.48828125 0.330078125 -19.1962890625 L 4.7431640625 -23.4970703125 Q 5.1904296875 -24.0 5.953125 -24.0 Q 6.75390625 -24.0 6.75390625 -23.013671875 L 6.75390625 -0.986328125 Q 6.75390625 0.0 5.7861328125 0.0" fill="black"></path></g><line stroke="red" stroke-width="1" x1="256.00000000000006" x2="759.3772659497049" y1="443.40500673763256" y2="152.78000673763262"></line> <line stroke="red" stroke-width="1" x1="-239.9999999999999" x2="263.377265949705" y1="-415.69219381653056" y2="-706.3171938165306"></line> <line marker-end="url(#dimension-arrow-head)" marker-start="url(#dimension-arrow-head)" stroke="red" stroke-width="1" x1="739.2421753117168" x2="243.24217531171684" y1="164.40500673763262" y2="-694.6921938165306"></line> <path d="M 743.2691934393144 162.08000673763263 L 247.26919343931445 -697.0171938165305"></path> <g transform="translate(-43.447265625 15.85400390625) translate(491.2421753117168 -265.14359353944894) rotate(60.00000000000001 43.447265625 -15.85400390625) rotate(0 43.447265625 -15.85400390625) translate(0 -19.8175048828125)"><path d="M 6.6328125 -0.037109375 Q 3.4677734375 -0.037109375 1.84765625 -1.38671875 Q 0.228515625 -2.7373046875 0.0048828125 -5.6416015625 Q -0.0322265625 -6.1259765625 0.228515625 -6.3955078125 Q 0.48828125 -6.666015625 0.97265625 -6.666015625 Q 1.884765625 -6.666015625 1.9599609375 -5.697265625 Q 2.1455078125 -3.630859375 3.1982421875 -2.8115234375 Q 4.25 -1.9921875 6.6328125 -1.9921875 L 10.8779296875 -1.9921875 Q 13.541015625 -1.9921875 14.57421875 -3.025390625 Q 15.607421875 -4.05859375 15.607421875 -6.666015625 Q 15.607421875 -9.291015625 14.57421875 -10.32421875 Q 13.541015625 -11.357421875 10.8779296875 -11.357421875 L 7.43359375 -11.357421875 Q 6.447265625 -11.357421875 6.447265625 -12.326171875 Q 6.447265625 -13.3125 7.43359375 -13.3125 L 11.380859375 -13.3125 Q 13.447265625 -13.3310546875 14.2294921875 -14.4208984375 Q 15.01171875 -15.509765625 15.01171875 -17.6884765625 Q 15.01171875 -20.126953125 14.0625 -21.0859375 Q 13.1123046875 -22.044921875 10.654296875 -22.044921875 L 7.04296875 -22.044921875 Q 4.8828125 -22.044921875 3.9052734375 -21.2998046875 Q 2.927734375 -20.5556640625 2.7607421875 -18.693359375 Q 2.6484375 -17.7255859375 1.7548828125 -17.7255859375 Q 1.2705078125 -17.7255859375 1.009765625 -17.9951171875 Q 0.7490234375 -18.265625 0.8056640625 -18.7490234375 Q 1.009765625 -21.44921875 2.537109375 -22.724609375 Q 4.0634765625 -24.0 7.04296875 -24.0 L 10.654296875 -24.0 Q 13.9130859375 -24.0 15.439453125 -22.4736328125 Q 16.966796875 -20.9462890625 16.966796875 -17.6884765625 Q 16.966796875 -13.9453125 14.2666015625 -12.568359375 Q 15.9794921875 -11.841796875 16.771484375 -10.3798828125 Q 17.5625 -8.9189453125 17.5625 -6.666015625 Q 17.5625 -3.2392578125 15.9609375 -1.638671875 Q 14.3603515625 -0.037109375 10.8779296875 -0.037109375" fill="black"></path><path d="M 28.56640625 0.0 Q 27.5791015625 0.0 27.5791015625 -0.986328125 L 27.5791015625 -21.6728515625 L 28.4736328125 -21.802734375 L 24.4326171875 -17.85546875 Q 24.09765625 -17.5205078125 23.7626953125 -17.501953125 Q 23.427734375 -17.4833984375 23.0927734375 -17.818359375 Q 22.458984375 -18.48828125 23.111328125 -19.1962890625 L 27.5234375 -23.4970703125 Q 27.970703125 -24.0 28.734375 -24.0 Q 29.5341796875 -24.0 29.5341796875 -23.013671875 L 29.5341796875 -0.986328125 Q 29.5341796875 0.0 28.56640625 0.0" fill="black"></path><path d="M 35.9765625 5.1015625 Q 35.3994140625 5.1015625 35.1484375 4.73828125 Q 34.896484375 4.375 35.0458984375 3.8544921875 L 42.6796875 -25.84375 Q 42.84765625 -26.6064453125 43.6103515625 -26.6064453125 Q 44.2060546875 -26.6064453125 44.4580078125 -26.2626953125 Q 44.708984375 -25.91796875 44.5791015625 -25.3408203125 L 36.9267578125 4.3564453125 Q 36.7587890625 5.1015625 35.9765625 5.1015625" fill="black"></path><path d="M 54.5771484375 -0.037109375 Q 51.412109375 -0.037109375 49.7919921875 -1.38671875 Q 48.171875 -2.7373046875 47.94921875 -5.6416015625 Q 47.9111328125 -6.1259765625 48.171875 -6.3955078125 Q 48.4326171875 -6.666015625 48.9169921875 -6.666015625 Q 49.8291015625 -6.666015625 49.9033203125 -5.697265625 Q 50.08984375 -3.630859375 51.1416015625 -2.8115234375 Q 52.1943359375 -1.9921875 54.5771484375 -1.9921875 L 58.822265625 -1.9921875 Q 61.4853515625 -1.9921875 62.5185546875 -3.025390625 Q 63.5517578125 -4.05859375 63.5517578125 -6.666015625 Q 63.5517578125 -9.291015625 62.5185546875 -10.32421875 Q 61.4853515625 -11.357421875 58.822265625 -11.357421875 L 55.3779296875 -11.357421875 Q 54.390625 -11.357421875 54.390625 -12.326171875 Q 54.390625 -13.3125 55.3779296875 -13.3125 L 59.3251953125 -13.3125 Q 61.3916015625 -13.3310546875 62.173828125 -14.4208984375 Q 62.9560546875 -15.509765625 62.9560546875 -17.6884765625 Q 62.9560546875 -20.126953125 62.005859375 -21.0859375 Q 61.056640625 -22.044921875 58.5986328125 -22.044921875 L 54.986328125 -22.044921875 Q 52.8271484375 -22.044921875 51.849609375 -21.2998046875 Q 50.8720703125 -20.5556640625 50.7041015625 -18.693359375 Q 50.5927734375 -17.7255859375 49.69921875 -17.7255859375 Q 49.21484375 -17.7255859375 48.9541015625 -17.9951171875 Q 48.693359375 -18.265625 48.7490234375 -18.7490234375 Q 48.9541015625 -21.44921875 50.4814453125 -22.724609375 Q 52.0078125 -24.0 54.986328125 -24.0 L 58.5986328125 -24.0 Q 61.857421875 -24.0 63.3837890625 -22.4736328125 Q 64.9111328125 -20.9462890625 64.9111328125 -17.6884765625 Q 64.9111328125 -13.9453125 62.2109375 -12.568359375 Q 63.923828125 -11.841796875 64.71484375 -10.3798828125 Q 65.5068359375 -8.9189453125 65.5068359375 -6.666015625 Q 65.5068359375 -3.2392578125 63.9052734375 -1.638671875 Q 62.3037109375 -0.037109375 58.822265625 -0.037109375" fill="black"></path><path d="M 85.8759765625 0.0 L 71.4462890625 0.0 Q 70.4404296875 0.0 70.4404296875 -0.986328125 Q 70.4404296875 -3.109375 71.017578125 -4.6357421875 Q 71.5947265625 -6.1630859375 72.703125 -7.345703125 Q 73.810546875 -8.52734375 75.40234375 -9.5703125 Q 76.994140625 -10.61328125 79.005859375 -11.767578125 Q 80.8486328125 -12.828125 82.115234375 -13.6572265625 Q 83.380859375 -14.4853515625 84.0419921875 -15.4072265625 Q 84.703125 -16.3291015625 84.703125 -17.6884765625 Q 84.703125 -20.126953125 83.7529296875 -21.0859375 Q 82.8037109375 -22.044921875 80.345703125 -22.044921875 L 76.361328125 -22.044921875 Q 74.2021484375 -22.044921875 73.224609375 -21.2998046875 Q 72.2470703125 -20.5556640625 72.0791015625 -18.693359375 Q 72.0234375 -18.208984375 71.78125 -17.9677734375 Q 71.5390625 -17.7255859375 71.0732421875 -17.7255859375 Q 70.58984375 -17.7255859375 70.3291015625 -17.9951171875 Q 70.068359375 -18.265625 70.10546875 -18.7490234375 Q 70.3291015625 -21.44921875 71.85546875 -22.724609375 Q 73.3828125 -24.0 76.361328125 -24.0 L 80.345703125 -24.0 Q 83.6044921875 -24.0 85.130859375 -22.4736328125 Q 86.658203125 -20.9462890625 86.658203125 -17.6884765625 Q 86.658203125 -15.7705078125 85.7548828125 -14.4580078125 Q 84.8515625 -13.1455078125 83.333984375 -12.1298828125 Q 81.8173828125 -11.115234375 79.9736328125 -10.0732421875 Q 77.609375 -8.7138671875 76.0078125 -7.625 Q 74.40625 -6.53515625 73.5224609375 -5.2412109375 Q 72.6376953125 -3.947265625 72.451171875 -1.955078125 L 85.8759765625 -1.955078125 Q 86.8623046875 -1.955078125 86.8623046875 -0.986328125 Q 86.8623046875 0.0 85.8759765625 0.0" fill="black"></path></g><line stroke="red" stroke-width="1" x1="384.00000000000006" x2="914.4405598179687" y1="443.40500673763256" y2="137.15500673763256"></line> <line stroke="red" stroke-width="1" x1="-175.9999999999999" x2="354.44055981796885" y1="-526.5434455009388" y2="-832.7934455009388"></line> <line marker-end="url(#dimension-arrow-head)" marker-start="url(#dimension-arrow-head)" stroke="red" stroke-width="1" x1="893.2229374252499" x2="333.22293742525005" y1="149.40500673763256" y2="-820.5434455009388"></line> <path d="M 897.4664619037937 146.95500673763257 L 337.46646190379386 -822.9934455009388"></path> <g transform="translate(-47.9345703125 15.85400390625) translate(613.2229374252499 -335.5692193816531) rotate(60.00000000000001 47.9345703125 -15.85400390625) rotate(0 47.9345703125 -15.85400390625) translate(0 -19.8175048828125)"><path d="M 6.6328125 -0.037109375 Q 3.4677734375 -0.037109375 1.84765625 -1.38671875 Q 0.228515625 -2.7373046875 0.0048828125 -5.6416015625 Q -0.0322265625 -6.1259765625 0.228515625 -6.3955078125 Q 0.48828125 -6.666015625 0.97265625 -6.666015625 Q 1.884765625 -6.666015625 1.9599609375 -5.697265625 Q 2.1455078125 -3.630859375 3.1982421875 -2.8115234375 Q 4.25 -1.9921875 6.6328125 -1.9921875 L 10.8779296875 -1.9921875 Q 13.541015625 -1.9921875 14.57421875 -3.025390625 Q 15.607421875 -4.05859375 15.607421875 -6.666015625 Q 15.607421875 -9.291015625 14.57421875 -10.32421875 Q 13.541015625 -11.357421875 10.8779296875 -11.357421875 L 7.43359375 -11.357421875 Q 6.447265625 -11.357421875 6.447265625 -12.326171875 Q 6.447265625 -13.3125 7.43359375 -13.3125 L 11.380859375 -13.3125 Q 13.447265625 -13.3310546875 14.2294921875 -14.4208984375 Q 15.01171875 -15.509765625 15.01171875 -17.6884765625 Q 15.01171875 -20.126953125 14.0625 -21.0859375 Q 13.1123046875 -22.044921875 10.654296875 -22.044921875 L 7.04296875 -22.044921875 Q 4.8828125 -22.044921875 3.9052734375 -21.2998046875 Q 2.927734375 -20.5556640625 2.7607421875 -18.693359375 Q 2.6484375 -17.7255859375 1.7548828125 -17.7255859375 Q 1.2705078125 -17.7255859375 1.009765625 -17.9951171875 Q 0.7490234375 -18.265625 0.8056640625 -18.7490234375 Q 1.009765625 -21.44921875 2.537109375 -22.724609375 Q 4.0634765625 -24.0 7.04296875 -24.0 L 10.654296875 -24.0 Q 13.9130859375 -24.0 15.439453125 -22.4736328125 Q 16.966796875 -20.9462890625 16.966796875 -17.6884765625 Q 16.966796875 -13.9453125 14.2666015625 -12.568359375 Q 15.9794921875 -11.841796875 16.771484375 -10.3798828125 Q 17.5625 -8.9189453125 17.5625 -6.666015625 Q 17.5625 -3.2392578125 15.9609375 -1.638671875 Q 14.3603515625 -0.037109375 10.8779296875 -0.037109375" fill="black"></path><path d="M 29.1806640625 0.0 Q 26.015625 0.0 24.3955078125 -1.359375 Q 22.775390625 -2.71875 22.552734375 -5.623046875 Q 22.5146484375 -6.107421875 22.775390625 -6.376953125 Q 23.0361328125 -6.6474609375 23.5205078125 -6.6474609375 Q 24.4326171875 -6.6474609375 24.5078125 -5.6787109375 Q 24.693359375 -3.6123046875 25.7451171875 -2.783203125 Q 26.7978515625 -1.955078125 29.1806640625 -1.955078125 L 33.0537109375 -1.955078125 Q 35.7158203125 -1.955078125 36.7490234375 -3.0068359375 Q 37.783203125 -4.05859375 37.783203125 -6.6845703125 L 37.783203125 -9.25390625 Q 37.783203125 -11.87890625 36.740234375 -12.921875 Q 35.697265625 -13.9638671875 33.0537109375 -13.9638671875 L 30.2978515625 -13.9638671875 Q 26.81640625 -13.9638671875 25.4755859375 -12.7724609375 Q 25.177734375 -12.51171875 24.8798828125 -12.400390625 Q 24.58203125 -12.2890625 24.171875 -12.4189453125 L 23.9677734375 -12.474609375 Q 23.1484375 -12.6982421875 23.1484375 -13.5546875 L 23.1484375 -23.013671875 Q 23.1484375 -24.0 24.1162109375 -24.0 L 38.564453125 -24.0 Q 39.533203125 -24.0 39.533203125 -23.013671875 Q 39.533203125 -22.044921875 38.564453125 -22.044921875 L 25.103515625 -22.044921875 L 25.103515625 -14.8955078125 Q 26.96484375 -15.9189453125 30.2978515625 -15.9189453125 L 33.0537109375 -15.9189453125 Q 36.5166015625 -15.9189453125 38.126953125 -14.318359375 Q 39.7373046875 -12.716796875 39.7373046875 -9.25390625 L 39.7373046875 -6.6845703125 Q 39.7373046875 -3.220703125 38.126953125 -1.6103515625 Q 36.5166015625 0.0 33.0537109375 0.0" fill="black"></path><path d="M 44.951171875 5.1015625 Q 44.3740234375 5.1015625 44.123046875 4.73828125 Q 43.87109375 4.375 44.0205078125 3.8544921875 L 51.654296875 -25.84375 Q 51.8212890625 -26.6064453125 52.5849609375 -26.6064453125 Q 53.1806640625 -26.6064453125 53.431640625 -26.2626953125 Q 53.68359375 -25.91796875 53.552734375 -25.3408203125 L 45.900390625 4.3564453125 Q 45.7333984375 5.1015625 44.951171875 5.1015625" fill="black"></path><path d="M 63.5517578125 -0.037109375 Q 60.38671875 -0.037109375 58.7666015625 -1.38671875 Q 57.146484375 -2.7373046875 56.9228515625 -5.6416015625 Q 56.8857421875 -6.1259765625 57.146484375 -6.3955078125 Q 57.4072265625 -6.666015625 57.8916015625 -6.666015625 Q 58.8037109375 -6.666015625 58.8779296875 -5.697265625 Q 59.064453125 -3.630859375 60.1162109375 -2.8115234375 Q 61.16796875 -1.9921875 63.5517578125 -1.9921875 L 67.796875 -1.9921875 Q 70.458984375 -1.9921875 71.4921875 -3.025390625 Q 72.5263671875 -4.05859375 72.5263671875 -6.666015625 Q 72.5263671875 -9.291015625 71.4921875 -10.32421875 Q 70.458984375 -11.357421875 67.796875 -11.357421875 L 64.3525390625 -11.357421875 Q 63.365234375 -11.357421875 63.365234375 -12.326171875 Q 63.365234375 -13.3125 64.3525390625 -13.3125 L 68.2998046875 -13.3125 Q 70.3662109375 -13.3310546875 71.1484375 -14.4208984375 Q 71.9306640625 -15.509765625 71.9306640625 -17.6884765625 Q 71.9306640625 -20.126953125 70.98046875 -21.0859375 Q 70.03125 -22.044921875 67.5732421875 -22.044921875 L 63.9609375 -22.044921875 Q 61.8017578125 -22.044921875 60.82421875 -21.2998046875 Q 59.8466796875 -20.5556640625 59.6787109375 -18.693359375 Q 59.5673828125 -17.7255859375 58.673828125 -17.7255859375 Q 58.189453125 -17.7255859375 57.9287109375 -17.9951171875 Q 57.66796875 -18.265625 57.7236328125 -18.7490234375 Q 57.9287109375 -21.44921875 59.455078125 -22.724609375 Q 60.982421875 -24.0 63.9609375 -24.0 L 67.5732421875 -24.0 Q 70.83203125 -24.0 72.3583984375 -22.4736328125 Q 73.884765625 -20.9462890625 73.884765625 -17.6884765625 Q 73.884765625 -13.9453125 71.185546875 -12.568359375 Q 72.8984375 -11.841796875 73.689453125 -10.3798828125 Q 74.4814453125 -8.9189453125 74.4814453125 -6.666015625 Q 74.4814453125 -3.2392578125 72.8798828125 -1.638671875 Q 71.2783203125 -0.037109375 67.796875 -0.037109375" fill="black"></path><path d="M 94.8505859375 0.0 L 80.4208984375 0.0 Q 79.4150390625 0.0 79.4150390625 -0.986328125 Q 79.4150390625 -3.109375 79.9921875 -4.6357421875 Q 80.5693359375 -6.1630859375 81.677734375 -7.345703125 Q 82.78515625 -8.52734375 84.376953125 -9.5703125 Q 85.96875 -10.61328125 87.9794921875 -11.767578125 Q 89.8232421875 -12.828125 91.0888671875 -13.6572265625 Q 92.35546875 -14.4853515625 93.0166015625 -15.4072265625 Q 93.677734375 -16.3291015625 93.677734375 -17.6884765625 Q 93.677734375 -20.126953125 92.7275390625 -21.0859375 Q 91.7783203125 -22.044921875 89.3203125 -22.044921875 L 85.3359375 -22.044921875 Q 83.17578125 -22.044921875 82.1982421875 -21.2998046875 Q 81.220703125 -20.5556640625 81.0537109375 -18.693359375 Q 80.998046875 -18.208984375 80.755859375 -17.9677734375 Q 80.513671875 -17.7255859375 80.0478515625 -17.7255859375 Q 79.564453125 -17.7255859375 79.3037109375 -17.9951171875 Q 79.04296875 -18.265625 79.080078125 -18.7490234375 Q 79.3037109375 -21.44921875 80.830078125 -22.724609375 Q 82.3564453125 -24.0 85.3359375 -24.0 L 89.3203125 -24.0 Q 92.5791015625 -24.0 94.10546875 -22.4736328125 Q 95.6318359375 -20.9462890625 95.6318359375 -17.6884765625 Q 95.6318359375 -15.7705078125 94.7294921875 -14.4580078125 Q 93.826171875 -13.1455078125 92.30859375 -12.1298828125 Q 90.791015625 -11.115234375 88.9482421875 -10.0732421875 Q 86.5830078125 -8.7138671875 84.982421875 -7.625 Q 83.380859375 -6.53515625 82.49609375 -5.2412109375 Q 81.6123046875 -3.947265625 81.42578125 -1.955078125 L 94.8505859375 -1.955078125 Q 95.8369140625 -1.955078125 95.8369140625 -0.986328125 Q 95.8369140625 0.0 94.8505859375 0.0" fill="black"></path></g><line stroke="red" stroke-width="1" x1="-128.0" x2="-80.36860279185588" y1="0.0" y2="-27.499999999999986"></line> <line stroke="red" stroke-width="1" x1="-303.9999999999999" x2="-256.3686027918558" y1="-304.8409421321224" y2="-332.3409421321224"></line> <line marker-end="url(#dimension-arrow-head)" marker-start="url(#dimension-arrow-head)" stroke="red" stroke-width="1" x1="-82.27385868018165" x2="-258.27385868018155" y1="-26.399999999999984" y2="-331.24094213212237"></line> <path d="M -81.89280750251649 -26.619999999999983 L -257.8928075025164 -331.4609421321224"></path> <g transform="translate(-38.80224609375 15.85400390625) translate(-170.2738586801816 -178.82047106606117) rotate(60.00000000000002 38.80224609375 -15.85400390625) rotate(0 38.80224609375 -15.85400390625) translate(0 -19.8175048828125)"><path d="M 5.7861328125 0.0 Q 4.798828125 0.0 4.798828125 -0.986328125 L 4.798828125 -21.6728515625 L 5.6923828125 -21.802734375 L 1.65234375 -17.85546875 Q 1.3173828125 -17.5205078125 0.982421875 -17.501953125 Q 0.6474609375 -17.4833984375 0.3115234375 -17.818359375 Q -0.3212890625 -18.48828125 0.330078125 -19.1962890625 L 4.7431640625 -23.4970703125 Q 5.1904296875 -24.0 5.953125 -24.0 Q 6.75390625 -24.0 6.75390625 -23.013671875 L 6.75390625 -0.986328125 Q 6.75390625 0.0 5.7861328125 0.0" fill="black"></path><path d="M 18.9873046875 0.0 Q 18.0 0.0 18.0 -0.986328125 L 18.0 -21.6728515625 L 18.8935546875 -21.802734375 L 14.853515625 -17.85546875 Q 14.5185546875 -17.5205078125 14.18359375 -17.501953125 Q 13.84765625 -17.4833984375 13.5126953125 -17.818359375 Q 12.8798828125 -18.48828125 13.53125 -19.1962890625 L 17.9443359375 -23.4970703125 Q 18.390625 -24.0 19.154296875 -24.0 Q 19.955078125 -24.0 19.955078125 -23.013671875 L 19.955078125 -0.986328125 Q 19.955078125 0.0 18.9873046875 0.0" fill="black"></path><path d="M 26.3974609375 5.1015625 Q 25.8203125 5.1015625 25.568359375 4.73828125 Q 25.3173828125 4.375 25.466796875 3.8544921875 L 33.1005859375 -25.84375 Q 33.267578125 -26.6064453125 34.03125 -26.6064453125 Q 34.626953125 -26.6064453125 34.8779296875 -26.2626953125 Q 35.1298828125 -25.91796875 34.9990234375 -25.3408203125 L 27.3466796875 4.3564453125 Q 27.1796875 5.1015625 26.3974609375 5.1015625" fill="black"></path><path d="M 44.998046875 -0.037109375 Q 41.83203125 -0.037109375 40.212890625 -1.38671875 Q 38.5927734375 -2.7373046875 38.369140625 -5.6416015625 Q 38.33203125 -6.1259765625 38.5927734375 -6.3955078125 Q 38.853515625 -6.666015625 39.337890625 -6.666015625 Q 40.25 -6.666015625 40.32421875 -5.697265625 Q 40.5107421875 -3.630859375 41.5625 -2.8115234375 Q 42.6142578125 -1.9921875 44.998046875 -1.9921875 L 49.2431640625 -1.9921875 Q 51.9052734375 -1.9921875 52.9384765625 -3.025390625 Q 53.9716796875 -4.05859375 53.9716796875 -6.666015625 Q 53.9716796875 -9.291015625 52.9384765625 -10.32421875 Q 51.9052734375 -11.357421875 49.2431640625 -11.357421875 L 45.798828125 -11.357421875 Q 44.8115234375 -11.357421875 44.8115234375 -12.326171875 Q 44.8115234375 -13.3125 45.798828125 -13.3125 L 49.74609375 -13.3125 Q 51.8125 -13.3310546875 52.5947265625 -14.4208984375 Q 53.3759765625 -15.509765625 53.3759765625 -17.6884765625 Q 53.3759765625 -20.126953125 52.4267578125 -21.0859375 Q 51.4775390625 -22.044921875 49.01953125 -22.044921875 L 45.4072265625 -22.044921875 Q 43.2470703125 -22.044921875 42.2705078125 -21.2998046875 Q 41.29296875 -20.5556640625 41.125 -18.693359375 Q 41.013671875 -17.7255859375 40.119140625 -17.7255859375 Q 39.6357421875 -17.7255859375 39.375 -17.9951171875 Q 39.1142578125 -18.265625 39.169921875 -18.7490234375 Q 39.375 -21.44921875 40.9013671875 -22.724609375 Q 42.4287109375 -24.0 45.4072265625 -24.0 L 49.01953125 -24.0 Q 52.27734375 -24.0 53.8046875 -22.4736328125 Q 55.3310546875 -20.9462890625 55.3310546875 -17.6884765625 Q 55.3310546875 -13.9453125 52.6318359375 -12.568359375 Q 54.3447265625 -11.841796875 55.1357421875 -10.3798828125 Q 55.9267578125 -8.9189453125 55.9267578125 -6.666015625 Q 55.9267578125 -3.2392578125 54.326171875 -1.638671875 Q 52.724609375 -0.037109375 49.2431640625 -0.037109375" fill="black"></path><path d="M 76.296875 0.0 L 61.8662109375 0.0 Q 60.861328125 0.0 60.861328125 -0.986328125 Q 60.861328125 -3.109375 61.4384765625 -4.6357421875 Q 62.015625 -6.1630859375 63.123046875 -7.345703125 Q 64.2314453125 -8.52734375 65.8232421875 -9.5703125 Q 67.4150390625 -10.61328125 69.42578125 -11.767578125 Q 71.26953125 -12.828125 72.53515625 -13.6572265625 Q 73.8017578125 -14.4853515625 74.462890625 -15.4072265625 Q 75.123046875 -16.3291015625 75.123046875 -17.6884765625 Q 75.123046875 -20.126953125 74.173828125 -21.0859375 Q 73.224609375 -22.044921875 70.7666015625 -22.044921875 L 66.7822265625 -22.044921875 Q 64.6220703125 -22.044921875 63.64453125 -21.2998046875 Q 62.6669921875 -20.5556640625 62.5 -18.693359375 Q 62.443359375 -18.208984375 62.2021484375 -17.9677734375 Q 61.9599609375 -17.7255859375 61.494140625 -17.7255859375 Q 61.009765625 -17.7255859375 60.7490234375 -17.9951171875 Q 60.4892578125 -18.265625 60.5263671875 -18.7490234375 Q 60.7490234375 -21.44921875 62.2763671875 -22.724609375 Q 63.802734375 -24.0 66.7822265625 -24.0 L 70.7666015625 -24.0 Q 74.0244140625 -24.0 75.5517578125 -22.4736328125 Q 77.078125 -20.9462890625 77.078125 -17.6884765625 Q 77.078125 -15.7705078125 76.17578125 -14.4580078125 Q 75.2724609375 -13.1455078125 73.7548828125 -12.1298828125 Q 72.2373046875 -11.115234375 70.39453125 -10.0732421875 Q 68.029296875 -8.7138671875 66.4287109375 -7.625 Q 64.8271484375 -6.53515625 63.9423828125 -5.2412109375 Q 63.05859375 -3.947265625 62.8720703125 -1.955078125 L 76.296875 -1.955078125 Q 77.283203125 -1.955078125 77.283203125 -0.986328125 Q 77.283203125 0.0 76.296875 0.0" fill="black"></path></g><line stroke="red" stroke-width="1" x1="-191.9999999999999" x2="-261.282032302755" y1="-554.2562584220408" y2="-594.2562584220408"></line> <line stroke="red" stroke-width="1" x1="-319.9999999999999" x2="-389.282032302755" y1="-332.55375505322445" y2="-372.55375505322445"></line> <line marker-end="url(#dimension-arrow-head)" marker-start="url(#dimension-arrow-head)" stroke="red" stroke-width="1" x1="-258.51075101064475" x2="-386.51075101064475" y1="-592.6562584220408" y2="-370.9537550532244"></line> <path d="M -259.0650072690668 -592.9762584220408 L -387.0650072690668 -371.2737550532245"></path> <g transform="translate(-21.26318359375 15.85400390625) translate(-322.51075101064475 -481.8050067376326) rotate(-60.00000000000001 21.26318359375 -15.85400390625) rotate(0 21.26318359375 -15.85400390625) translate(0 -19.8175048828125)"><path d="M 5.7861328125 0.0 Q 4.798828125 0.0 4.798828125 -0.986328125 L 4.798828125 -21.6728515625 L 5.6923828125 -21.802734375 L 1.65234375 -17.85546875 Q 1.3173828125 -17.5205078125 0.982421875 -17.501953125 Q 0.6474609375 -17.4833984375 0.3115234375 -17.818359375 Q -0.3212890625 -18.48828125 0.330078125 -19.1962890625 L 4.7431640625 -23.4970703125 Q 5.1904296875 -24.0 5.953125 -24.0 Q 6.75390625 -24.0 6.75390625 -23.013671875 L 6.75390625 -0.986328125 Q 6.75390625 0.0 5.7861328125 0.0" fill="black"></path><path d="M 13.1962890625 5.1015625 Q 12.619140625 5.1015625 12.3681640625 4.73828125 Q 12.1162109375 4.375 12.265625 3.8544921875 L 19.8994140625 -25.84375 Q 20.06640625 -26.6064453125 20.830078125 -26.6064453125 Q 21.42578125 -26.6064453125 21.677734375 -26.2626953125 Q 21.9287109375 -25.91796875 21.798828125 -25.3408203125 L 14.1455078125 4.3564453125 Q 13.978515625 5.1015625 13.1962890625 5.1015625" fill="black"></path><path d="M 38.369140625 0.0 Q 37.3828125 0.0 37.3828125 -0.986328125 L 37.53125 -21.3193359375 L 38.0712890625 -21.412109375 L 26.732421875 -6.666015625 L 26.416015625 -7.1494140625 L 41.2177734375 -7.16796875 Q 41.7021484375 -7.16796875 41.953125 -6.9072265625 Q 42.205078125 -6.6474609375 42.205078125 -6.181640625 Q 42.205078125 -5.212890625 41.2177734375 -5.212890625 L 25.41015625 -5.212890625 Q 24.423828125 -5.212890625 24.423828125 -6.181640625 Q 24.423828125 -6.6474609375 24.8330078125 -7.2060546875 L 37.2890625 -23.3857421875 Q 37.5498046875 -23.7392578125 37.8388671875 -23.8701171875 Q 38.126953125 -24.0 38.5556640625 -24.0 Q 39.486328125 -24.0 39.486328125 -23.013671875 L 39.337890625 -0.986328125 Q 39.337890625 0.0 38.369140625 0.0" fill="black"></path></g><line stroke="red" stroke-width="1" x1="384.00000000000006" x2="968.5671475544962" y1="443.40500673763256" y2="105.90500673763256"></line> <line stroke="red" stroke-width="1" x1="-191.9999999999999" x2="392.5671475544963" y1="-554.2562584220408" y2="-891.7562584220408"></line> <line marker-end="url(#dimension-arrow-head)" marker-start="url(#dimension-arrow-head)" stroke="red" stroke-width="1" x1="945.1844616523163" x2="369.1844616523164" y1="119.40500673763256" y2="-878.2562584220408"></line> <path d="M 949.8609988327523 116.70500673763257 L 373.86099883275233 -880.9562584220407"></path> <g transform="translate(-26.2529296875 15.85400390625) translate(657.1844616523163 -379.4256258422041) rotate(60.00000000000001 26.2529296875 -15.85400390625) rotate(0 26.2529296875 -15.85400390625) translate(0 -19.8175048828125)"><path d="M 10.556640625 -23.962890625 Q 14.0205078125 -23.962890625 15.62109375 -22.361328125 Q 17.22265625 -20.7607421875 17.22265625 -17.333984375 L 17.22265625 -6.3115234375 Q 17.22265625 -3.0537109375 15.705078125 -1.5263671875 Q 14.1875 0.0 10.9296875 0.0 L 6.3115234375 0.0 Q 3.3330078125 0.0 1.8056640625 -1.28515625 Q 0.279296875 -2.5693359375 0.0556640625 -5.2509765625 Q 0.0185546875 -5.734375 0.26953125 -6.0048828125 Q 0.521484375 -6.2744140625 0.986328125 -6.2744140625 Q 1.91796875 -6.2744140625 2.0107421875 -5.306640625 Q 2.1787109375 -3.462890625 3.15625 -2.708984375 Q 4.1337890625 -1.955078125 6.3115234375 -1.955078125 L 10.9296875 -1.955078125 Q 13.3681640625 -1.955078125 14.318359375 -2.9140625 Q 15.267578125 -3.873046875 15.267578125 -6.3115234375 L 15.267578125 -10.4638671875 Q 14.0205078125 -8.1181640625 10.556640625 -8.1181640625 L 6.6845703125 -8.1181640625 Q 3.220703125 -8.1181640625 1.6103515625 -9.728515625 Q 0.0 -11.3388671875 0.0 -14.8017578125 L 0.0 -17.296875 Q 0.0 -20.7607421875 1.6103515625 -22.361328125 Q 3.220703125 -23.962890625 6.6845703125 -23.962890625 M 10.556640625 -22.0078125 L 6.6845703125 -22.0078125 Q 4.05859375 -22.0078125 3.0068359375 -20.96484375 Q 1.955078125 -19.9228515625 1.955078125 -17.296875 L 1.955078125 -14.8017578125 Q 1.955078125 -12.1767578125 3.0068359375 -11.125 Q 4.05859375 -10.0732421875 6.6845703125 -10.0732421875 L 10.556640625 -10.0732421875 Q 13.201171875 -10.0732421875 14.234375 -11.1064453125 Q 15.267578125 -12.1396484375 15.267578125 -14.7646484375 L 15.267578125 -17.333984375 Q 15.267578125 -19.9599609375 14.234375 -20.9833984375 Q 13.201171875 -22.0078125 10.556640625 -22.0078125" fill="black"></path><path d="M 22.435546875 5.1015625 Q 21.8583984375 5.1015625 21.607421875 4.73828125 Q 21.3564453125 4.375 21.5048828125 3.8544921875 L 29.138671875 -25.84375 Q 29.306640625 -26.6064453125 30.0693359375 -26.6064453125 Q 30.666015625 -26.6064453125 30.9169921875 -26.2626953125 Q 31.16796875 -25.91796875 31.0380859375 -25.3408203125 L 23.3857421875 4.3564453125 Q 23.2177734375 5.1015625 22.435546875 5.1015625" fill="black"></path><path d="M 49.359375 -12.4375 Q 52.505859375 -11.0224609375 52.505859375 -6.6474609375 Q 52.505859375 -3.2021484375 50.904296875 -1.6015625 Q 49.3037109375 0.0 45.83984375 0.0 L 41.5947265625 0.0 Q 38.1318359375 0.0 36.521484375 -1.6015625 Q 34.9111328125 -3.2021484375 34.9111328125 -6.6474609375 Q 34.9111328125 -11.078125 38.1875 -12.4931640625 Q 35.6923828125 -14.001953125 35.6923828125 -17.7255859375 Q 35.6923828125 -20.96484375 37.2197265625 -22.482421875 Q 38.74609375 -24.0 42.0048828125 -24.0 L 45.6171875 -24.0 Q 48.875 -24.0 50.392578125 -22.482421875 Q 51.91015625 -20.96484375 51.91015625 -17.7255859375 Q 51.91015625 -13.908203125 49.359375 -12.4375 M 42.0048828125 -22.044921875 Q 39.5654296875 -22.044921875 38.6064453125 -21.0859375 Q 37.6474609375 -20.126953125 37.6474609375 -17.7255859375 Q 37.6474609375 -15.23046875 38.59765625 -14.2529296875 Q 39.546875 -13.275390625 41.8740234375 -13.275390625 L 46.17578125 -13.2939453125 Q 47.6279296875 -13.2939453125 48.4560546875 -13.787109375 Q 49.28515625 -14.28125 49.6201171875 -15.2587890625 Q 49.955078125 -16.236328125 49.955078125 -17.7255859375 Q 49.955078125 -20.126953125 49.005859375 -21.0859375 Q 48.0556640625 -22.044921875 45.6171875 -22.044921875 M 45.83984375 -1.955078125 Q 48.484375 -1.955078125 49.517578125 -2.98828125 Q 50.55078125 -4.021484375 50.55078125 -6.6474609375 Q 50.55078125 -9.2724609375 49.517578125 -10.2958984375 Q 48.484375 -11.3203125 45.83984375 -11.3203125 L 41.5947265625 -11.3203125 Q 38.9326171875 -11.3203125 37.8994140625 -10.2958984375 Q 36.8662109375 -9.2724609375 36.8662109375 -6.6474609375 Q 36.8662109375 -4.021484375 37.8994140625 -2.98828125 Q 38.9326171875 -1.955078125 41.5947265625 -1.955078125" fill="black"></path></g><line stroke="red" stroke-width="1" x1="128.00000000000006" x2="128.00000000000006" y1="443.40500673763256" y2="523.4050067376326"></line> <line stroke="red" stroke-width="1" x1="384.00000000000006" x2="384.00000000000006" y1="443.40500673763256" y2="523.4050067376326"></line> <line marker-end="url(#dimension-arrow-head)" marker-start="url(#dimension-arrow-head)" stroke="red" stroke-width="1" x1="128.00000000000006" x2="384.00000000000006" y1="520.2050067376325" y2="520.2050067376325"></line> <path d="M 128.00000000000006 519.5650067376325 L 384.00000000000006 519.5650067376325"></path> <g transform="translate(-21.26318359375 15.85400390625) translate(256.00000000000006 520.2050067376325) rotate(-180.0 21.26318359375 -15.85400390625) rotate(180 21.26318359375 -15.85400390625) translate(0 -19.8175048828125)"><path d="M 5.7861328125 0.0 Q 4.798828125 0.0 4.798828125 -0.986328125 L 4.798828125 -21.6728515625 L 5.6923828125 -21.802734375 L 1.65234375 -17.85546875 Q 1.3173828125 -17.5205078125 0.982421875 -17.501953125 Q 0.6474609375 -17.4833984375 0.3115234375 -17.818359375 Q -0.3212890625 -18.48828125 0.330078125 -19.1962890625 L 4.7431640625 -23.4970703125 Q 5.1904296875 -24.0 5.953125 -24.0 Q 6.75390625 -24.0 6.75390625 -23.013671875 L 6.75390625 -0.986328125 Q 6.75390625 0.0 5.7861328125 0.0" fill="black"></path><path d="M 13.1962890625 5.1015625 Q 12.619140625 5.1015625 12.3681640625 4.73828125 Q 12.1162109375 4.375 12.265625 3.8544921875 L 19.8994140625 -25.84375 Q 20.06640625 -26.6064453125 20.830078125 -26.6064453125 Q 21.42578125 -26.6064453125 21.677734375 -26.2626953125 Q 21.9287109375 -25.91796875 21.798828125 -25.3408203125 L 14.1455078125 4.3564453125 Q 13.978515625 5.1015625 13.1962890625 5.1015625" fill="black"></path><path d="M 38.369140625 0.0 Q 37.3828125 0.0 37.3828125 -0.986328125 L 37.53125 -21.3193359375 L 38.0712890625 -21.412109375 L 26.732421875 -6.666015625 L 26.416015625 -7.1494140625 L 41.2177734375 -7.16796875 Q 41.7021484375 -7.16796875 41.953125 -6.9072265625 Q 42.205078125 -6.6474609375 42.205078125 -6.181640625 Q 42.205078125 -5.212890625 41.2177734375 -5.212890625 L 25.41015625 -5.212890625 Q 24.423828125 -5.212890625 24.423828125 -6.181640625 Q 24.423828125 -6.6474609375 24.8330078125 -7.2060546875 L 37.2890625 -23.3857421875 Q 37.5498046875 -23.7392578125 37.8388671875 -23.8701171875 Q 38.126953125 -24.0 38.5556640625 -24.0 Q 39.486328125 -24.0 39.486328125 -23.013671875 L 39.337890625 -0.986328125 Q 39.337890625 0.0 38.369140625 0.0" fill="black"></path></g><line stroke="red" stroke-width="1" x1="128.00000000000006" x2="197.28203230275514" y1="443.40500673763256" y2="403.40500673763256"></line> <line stroke="red" stroke-width="1" x1="-4.072608916703642e-14" x2="69.28203230275504" y1="221.70250336881628" y2="181.70250336881625"></line> <line marker-end="url(#dimension-arrow-head)" marker-start="url(#dimension-arrow-head)" stroke="red" stroke-width="1" x1="194.51075101064492" x2="66.51075101064484" y1="405.0050067376325" y2="183.30250336881625"></line> <path d="M 195.065007269067 404.68500673763253 L 67.06500726906688 182.98250336881625"></path> <g transform="translate(-21.26318359375 15.85400390625) translate(130.51075101064487 294.15375505322436) rotate(59.999999999999986 21.26318359375 -15.85400390625) rotate(0 21.26318359375 -15.85400390625) translate(0 -19.8175048828125)"><path d="M 5.7861328125 0.0 Q 4.798828125 0.0 4.798828125 -0.986328125 L 4.798828125 -21.6728515625 L 5.6923828125 -21.802734375 L 1.65234375 -17.85546875 Q 1.3173828125 -17.5205078125 0.982421875 -17.501953125 Q 0.6474609375 -17.4833984375 0.3115234375 -17.818359375 Q -0.3212890625 -18.48828125 0.330078125 -19.1962890625 L 4.7431640625 -23.4970703125 Q 5.1904296875 -24.0 5.953125 -24.0 Q 6.75390625 -24.0 6.75390625 -23.013671875 L 6.75390625 -0.986328125 Q 6.75390625 0.0 5.7861328125 0.0" fill="black"></path><path d="M 13.1962890625 5.1015625 Q 12.619140625 5.1015625 12.3681640625 4.73828125 Q 12.1162109375 4.375 12.265625 3.8544921875 L 19.8994140625 -25.84375 Q 20.06640625 -26.6064453125 20.830078125 -26.6064453125 Q 21.42578125 -26.6064453125 21.677734375 -26.2626953125 Q 21.9287109375 -25.91796875 21.798828125 -25.3408203125 L 14.1455078125 4.3564453125 Q 13.978515625 5.1015625 13.1962890625 5.1015625" fill="black"></path><path d="M 38.369140625 0.0 Q 37.3828125 0.0 37.3828125 -0.986328125 L 37.53125 -21.3193359375 L 38.0712890625 -21.412109375 L 26.732421875 -6.666015625 L 26.416015625 -7.1494140625 L 41.2177734375 -7.16796875 Q 41.7021484375 -7.16796875 41.953125 -6.9072265625 Q 42.205078125 -6.6474609375 42.205078125 -6.181640625 Q 42.205078125 -5.212890625 41.2177734375 -5.212890625 L 25.41015625 -5.212890625 Q 24.423828125 -5.212890625 24.423828125 -6.181640625 Q 24.423828125 -6.6474609375 24.8330078125 -7.2060546875 L 37.2890625 -23.3857421875 Q 37.5498046875 -23.7392578125 37.8388671875 -23.8701171875 Q 38.126953125 -24.0 38.5556640625 -24.0 Q 39.486328125 -24.0 39.486328125 -23.013671875 L 39.337890625 -0.986328125 Q 39.337890625 0.0 38.369140625 0.0" fill="black"></path></g><line stroke="red" stroke-width="1" x1="-4.072608916703642e-14" x2="-69.2820323027551" y1="221.70250336881628" y2="181.70250336881622"></line> <line stroke="red" stroke-width="1" x1="-128.00000000000023" x2="-197.28203230275528" y1="443.40500673763245" y2="403.4050067376324"></line> <line marker-end="url(#dimension-arrow-head)" marker-start="url(#dimension-arrow-head)" stroke="red" stroke-width="1" x1="-66.51075101064488" x2="-194.51075101064507" y1="183.30250336881622" y2="405.00500673763236"></line> <path d="M -67.06500726906692 182.98250336881623 L -195.0650072690671 404.68500673763236"></path> <g transform="translate(-21.26318359375 15.85400390625) translate(-130.51075101064498 294.1537550532243) rotate(-59.99999999999996 21.26318359375 -15.85400390625) rotate(0 21.26318359375 -15.85400390625) translate(0 -19.8175048828125)"><path d="M 5.7861328125 0.0 Q 4.798828125 0.0 4.798828125 -0.986328125 L 4.798828125 -21.6728515625 L 5.6923828125 -21.802734375 L 1.65234375 -17.85546875 Q 1.3173828125 -17.5205078125 0.982421875 -17.501953125 Q 0.6474609375 -17.4833984375 0.3115234375 -17.818359375 Q -0.3212890625 -18.48828125 0.330078125 -19.1962890625 L 4.7431640625 -23.4970703125 Q 5.1904296875 -24.0 5.953125 -24.0 Q 6.75390625 -24.0 6.75390625 -23.013671875 L 6.75390625 -0.986328125 Q 6.75390625 0.0 5.7861328125 0.0" fill="black"></path><path d="M 13.1962890625 5.1015625 Q 12.619140625 5.1015625 12.3681640625 4.73828125 Q 12.1162109375 4.375 12.265625 3.8544921875 L 19.8994140625 -25.84375 Q 20.06640625 -26.6064453125 20.830078125 -26.6064453125 Q 21.42578125 -26.6064453125 21.677734375 -26.2626953125 Q 21.9287109375 -25.91796875 21.798828125 -25.3408203125 L 14.1455078125 4.3564453125 Q 13.978515625 5.1015625 13.1962890625 5.1015625" fill="black"></path><path d="M 38.369140625 0.0 Q 37.3828125 0.0 37.3828125 -0.986328125 L 37.53125 -21.3193359375 L 38.0712890625 -21.412109375 L 26.732421875 -6.666015625 L 26.416015625 -7.1494140625 L 41.2177734375 -7.16796875 Q 41.7021484375 -7.16796875 41.953125 -6.9072265625 Q 42.205078125 -6.6474609375 42.205078125 -6.181640625 Q 42.205078125 -5.212890625 41.2177734375 -5.212890625 L 25.41015625 -5.212890625 Q 24.423828125 -5.212890625 24.423828125 -6.181640625 Q 24.423828125 -6.6474609375 24.8330078125 -7.2060546875 L 37.2890625 -23.3857421875 Q 37.5498046875 -23.7392578125 37.8388671875 -23.8701171875 Q 38.126953125 -24.0 38.5556640625 -24.0 Q 39.486328125 -24.0 39.486328125 -23.013671875 L 39.337890625 -0.986328125 Q 39.337890625 0.0 38.369140625 0.0" fill="black"></path></g><line stroke="red" stroke-width="1" x1="-256.0000000000002" x2="-256.0000000000002" y1="443.40500673763245" y2="523.4050067376324"></line> <line stroke="red" stroke-width="1" x1="-128.00000000000023" x2="-128.00000000000023" y1="443.40500673763245" y2="523.4050067376324"></line> <line marker-end="url(#dimension-arrow-head)" marker-start="url(#dimension-arrow-head)" stroke="red" stroke-width="1" x1="-256.0000000000002" x2="-128.00000000000023" y1="520.2050067376324" y2="520.2050067376324"></line> <path d="M -256.0000000000002 519.5650067376324 L -128.00000000000023 519.5650067376324"></path> <g transform="translate(-21.7939453125 15.85400390625) translate(-192.00000000000023 520.2050067376324) rotate(-180.0 21.7939453125 -15.85400390625) rotate(180 21.7939453125 -15.85400390625) translate(0 -19.8175048828125)"><path d="M 5.7861328125 0.0 Q 4.798828125 0.0 4.798828125 -0.986328125 L 4.798828125 -21.6728515625 L 5.6923828125 -21.802734375 L 1.65234375 -17.85546875 Q 1.3173828125 -17.5205078125 0.982421875 -17.501953125 Q 0.6474609375 -17.4833984375 0.3115234375 -17.818359375 Q -0.3212890625 -18.48828125 0.330078125 -19.1962890625 L 4.7431640625 -23.4970703125 Q 5.1904296875 -24.0 5.953125 -24.0 Q 6.75390625 -24.0 6.75390625 -23.013671875 L 6.75390625 -0.986328125 Q 6.75390625 0.0 5.7861328125 0.0" fill="black"></path><path d="M 13.1962890625 5.1015625 Q 12.619140625 5.1015625 12.3681640625 4.73828125 Q 12.1162109375 4.375 12.265625 3.8544921875 L 19.8994140625 -25.84375 Q 20.06640625 -26.6064453125 20.830078125 -26.6064453125 Q 21.42578125 -26.6064453125 21.677734375 -26.2626953125 Q 21.9287109375 -25.91796875 21.798828125 -25.3408203125 L 14.1455078125 4.3564453125 Q 13.978515625 5.1015625 13.1962890625 5.1015625" fill="black"></path><path d="M 40.119140625 -12.4375 Q 43.2666015625 -11.0224609375 43.2666015625 -6.6474609375 Q 43.2666015625 -3.2021484375 41.6650390625 -1.6015625 Q 40.0634765625 0.0 36.6005859375 0.0 L 32.35546875 0.0 Q 28.892578125 0.0 27.28125 -1.6015625 Q 25.6708984375 -3.2021484375 25.6708984375 -6.6474609375 Q 25.6708984375 -11.078125 28.9482421875 -12.4931640625 Q 26.453125 -14.001953125 26.453125 -17.7255859375 Q 26.453125 -20.96484375 27.9794921875 -22.482421875 Q 29.5068359375 -24.0 32.7646484375 -24.0 L 36.376953125 -24.0 Q 39.6357421875 -24.0 41.1533203125 -22.482421875 Q 42.669921875 -20.96484375 42.669921875 -17.7255859375 Q 42.669921875 -13.908203125 40.119140625 -12.4375 M 32.7646484375 -22.044921875 Q 30.326171875 -22.044921875 29.3671875 -21.0859375 Q 28.408203125 -20.126953125 28.408203125 -17.7255859375 Q 28.408203125 -15.23046875 29.357421875 -14.2529296875 Q 30.3076171875 -13.275390625 32.634765625 -13.275390625 L 36.935546875 -13.2939453125 Q 38.3876953125 -13.2939453125 39.216796875 -13.787109375 Q 40.044921875 -14.28125 40.3798828125 -15.2587890625 Q 40.7158203125 -16.236328125 40.7158203125 -17.7255859375 Q 40.7158203125 -20.126953125 39.765625 -21.0859375 Q 38.81640625 -22.044921875 36.376953125 -22.044921875 M 36.6005859375 -1.955078125 Q 39.244140625 -1.955078125 40.27734375 -2.98828125 Q 41.3115234375 -4.021484375 41.3115234375 -6.6474609375 Q 41.3115234375 -9.2724609375 40.27734375 -10.2958984375 Q 39.244140625 -11.3203125 36.6005859375 -11.3203125 L 32.35546875 -11.3203125 Q 29.6923828125 -11.3203125 28.6591796875 -10.2958984375 Q 27.6259765625 -9.2724609375 27.6259765625 -6.6474609375 Q 27.6259765625 -4.021484375 28.6591796875 -2.98828125 Q 29.6923828125 -1.955078125 32.35546875 -1.955078125" fill="black"></path></g><line stroke="red" stroke-width="1" x1="-320.0000000000002" x2="-389.2820323027553" y1="332.55375505322434" y2="372.55375505322434"></line> <line stroke="red" stroke-width="1" x1="-256.0000000000002" x2="-325.2820323027553" y1="443.40500673763245" y2="483.40500673763245"></line> <line marker-end="url(#dimension-arrow-head)" marker-start="url(#dimension-arrow-head)" stroke="red" stroke-width="1" x1="-386.5107510106451" x2="-322.5107510106451" y1="370.9537550532243" y2="481.8050067376324"></line> <path d="M -385.9564947522231 370.6337550532243 L -321.9564947522231 481.48500673763243"></path> <g transform="translate(-21.7939453125 15.85400390625) translate(-354.5107510106451 426.37938089542837) rotate(-120.00000000000001 21.7939453125 -15.85400390625) rotate(180 21.7939453125 -15.85400390625) translate(0 -19.8175048828125)"><path d="M 5.7861328125 0.0 Q 4.798828125 0.0 4.798828125 -0.986328125 L 4.798828125 -21.6728515625 L 5.6923828125 -21.802734375 L 1.65234375 -17.85546875 Q 1.3173828125 -17.5205078125 0.982421875 -17.501953125 Q 0.6474609375 -17.4833984375 0.3115234375 -17.818359375 Q -0.3212890625 -18.48828125 0.330078125 -19.1962890625 L 4.7431640625 -23.4970703125 Q 5.1904296875 -24.0 5.953125 -24.0 Q 6.75390625 -24.0 6.75390625 -23.013671875 L 6.75390625 -0.986328125 Q 6.75390625 0.0 5.7861328125 0.0" fill="black"></path><path d="M 13.1962890625 5.1015625 Q 12.619140625 5.1015625 12.3681640625 4.73828125 Q 12.1162109375 4.375 12.265625 3.8544921875 L 19.8994140625 -25.84375 Q 20.06640625 -26.6064453125 20.830078125 -26.6064453125 Q 21.42578125 -26.6064453125 21.677734375 -26.2626953125 Q 21.9287109375 -25.91796875 21.798828125 -25.3408203125 L 14.1455078125 4.3564453125 Q 13.978515625 5.1015625 13.1962890625 5.1015625" fill="black"></path><path d="M 40.119140625 -12.4375 Q 43.2666015625 -11.0224609375 43.2666015625 -6.6474609375 Q 43.2666015625 -3.2021484375 41.6650390625 -1.6015625 Q 40.0634765625 0.0 36.6005859375 0.0 L 32.35546875 0.0 Q 28.892578125 0.0 27.28125 -1.6015625 Q 25.6708984375 -3.2021484375 25.6708984375 -6.6474609375 Q 25.6708984375 -11.078125 28.9482421875 -12.4931640625 Q 26.453125 -14.001953125 26.453125 -17.7255859375 Q 26.453125 -20.96484375 27.9794921875 -22.482421875 Q 29.5068359375 -24.0 32.7646484375 -24.0 L 36.376953125 -24.0 Q 39.6357421875 -24.0 41.1533203125 -22.482421875 Q 42.669921875 -20.96484375 42.669921875 -17.7255859375 Q 42.669921875 -13.908203125 40.119140625 -12.4375 M 32.7646484375 -22.044921875 Q 30.326171875 -22.044921875 29.3671875 -21.0859375 Q 28.408203125 -20.126953125 28.408203125 -17.7255859375 Q 28.408203125 -15.23046875 29.357421875 -14.2529296875 Q 30.3076171875 -13.275390625 32.634765625 -13.275390625 L 36.935546875 -13.2939453125 Q 38.3876953125 -13.2939453125 39.216796875 -13.787109375 Q 40.044921875 -14.28125 40.3798828125 -15.2587890625 Q 40.7158203125 -16.236328125 40.7158203125 -17.7255859375 Q 40.7158203125 -20.126953125 39.765625 -21.0859375 Q 38.81640625 -22.044921875 36.376953125 -22.044921875 M 36.6005859375 -1.955078125 Q 39.244140625 -1.955078125 40.27734375 -2.98828125 Q 41.3115234375 -4.021484375 41.3115234375 -6.6474609375 Q 41.3115234375 -9.2724609375 40.27734375 -10.2958984375 Q 39.244140625 -11.3203125 36.6005859375 -11.3203125 L 32.35546875 -11.3203125 Q 29.6923828125 -11.3203125 28.6591796875 -10.2958984375 Q 27.6259765625 -9.2724609375 27.6259765625 -6.6474609375 Q 27.6259765625 -4.021484375 28.6591796875 -2.98828125 Q 29.6923828125 -1.955078125 32.35546875 -1.955078125" fill="black"></path></g><line stroke="red" stroke-width="1" x1="-320.0000000000002" x2="-268.0384757729339" y1="332.55375505322434" y2="362.5537550532244"></line> <line stroke="red" stroke-width="1" x1="-128.0" x2="-76.0384757729337" y1="0.0" y2="30.000000000000032"></line> <line marker-end="url(#dimension-arrow-head)" marker-start="url(#dimension-arrow-head)" stroke="red" stroke-width="1" x1="-270.1169367420166" x2="-78.11693674201635" y1="361.35375505322435" y2="28.80000000000003"></line> <path d="M -270.5326289358331 361.1137550532244 L -78.53262893583289 28.56000000000003"></path> <g transform="translate(-26.43896484375 15.85400390625) translate(-174.1169367420165 195.07687752661218) rotate(120.00000000000004 26.43896484375 -15.85400390625) rotate(180 26.43896484375 -15.85400390625) translate(0 -19.8175048828125)"><path d="M 6.6328125 -0.037109375 Q 3.4677734375 -0.037109375 1.84765625 -1.38671875 Q 0.228515625 -2.7373046875 0.0048828125 -5.6416015625 Q -0.0322265625 -6.1259765625 0.228515625 -6.3955078125 Q 0.48828125 -6.666015625 0.97265625 -6.666015625 Q 1.884765625 -6.666015625 1.9599609375 -5.697265625 Q 2.1455078125 -3.630859375 3.1982421875 -2.8115234375 Q 4.25 -1.9921875 6.6328125 -1.9921875 L 10.8779296875 -1.9921875 Q 13.541015625 -1.9921875 14.57421875 -3.025390625 Q 15.607421875 -4.05859375 15.607421875 -6.666015625 Q 15.607421875 -9.291015625 14.57421875 -10.32421875 Q 13.541015625 -11.357421875 10.8779296875 -11.357421875 L 7.43359375 -11.357421875 Q 6.447265625 -11.357421875 6.447265625 -12.326171875 Q 6.447265625 -13.3125 7.43359375 -13.3125 L 11.380859375 -13.3125 Q 13.447265625 -13.3310546875 14.2294921875 -14.4208984375 Q 15.01171875 -15.509765625 15.01171875 -17.6884765625 Q 15.01171875 -20.126953125 14.0625 -21.0859375 Q 13.1123046875 -22.044921875 10.654296875 -22.044921875 L 7.04296875 -22.044921875 Q 4.8828125 -22.044921875 3.9052734375 -21.2998046875 Q 2.927734375 -20.5556640625 2.7607421875 -18.693359375 Q 2.6484375 -17.7255859375 1.7548828125 -17.7255859375 Q 1.2705078125 -17.7255859375 1.009765625 -17.9951171875 Q 0.7490234375 -18.265625 0.8056640625 -18.7490234375 Q 1.009765625 -21.44921875 2.537109375 -22.724609375 Q 4.0634765625 -24.0 7.04296875 -24.0 L 10.654296875 -24.0 Q 13.9130859375 -24.0 15.439453125 -22.4736328125 Q 16.966796875 -20.9462890625 16.966796875 -17.6884765625 Q 16.966796875 -13.9453125 14.2666015625 -12.568359375 Q 15.9794921875 -11.841796875 16.771484375 -10.3798828125 Q 17.5625 -8.9189453125 17.5625 -6.666015625 Q 17.5625 -3.2392578125 15.9609375 -1.638671875 Q 14.3603515625 -0.037109375 10.8779296875 -0.037109375" fill="black"></path><path d="M 22.775390625 5.1015625 Q 22.1982421875 5.1015625 21.947265625 4.73828125 Q 21.6962890625 4.375 21.8447265625 3.8544921875 L 29.478515625 -25.84375 Q 29.646484375 -26.6064453125 30.4091796875 -26.6064453125 Q 31.005859375 -26.6064453125 31.2568359375 -26.2626953125 Q 31.5078125 -25.91796875 31.3779296875 -25.3408203125 L 23.7255859375 4.3564453125 Q 23.5576171875 5.1015625 22.775390625 5.1015625" fill="black"></path><path d="M 49.69921875 -12.4375 Q 52.845703125 -11.0224609375 52.845703125 -6.6474609375 Q 52.845703125 -3.2021484375 51.244140625 -1.6015625 Q 49.6435546875 0.0 46.1796875 0.0 L 41.9345703125 0.0 Q 38.4716796875 0.0 36.861328125 -1.6015625 Q 35.2509765625 -3.2021484375 35.2509765625 -6.6474609375 Q 35.2509765625 -11.078125 38.52734375 -12.4931640625 Q 36.0322265625 -14.001953125 36.0322265625 -17.7255859375 Q 36.0322265625 -20.96484375 37.5595703125 -22.482421875 Q 39.0859375 -24.0 42.3447265625 -24.0 L 45.95703125 -24.0 Q 49.21484375 -24.0 50.732421875 -22.482421875 Q 52.25 -20.96484375 52.25 -17.7255859375 Q 52.25 -13.908203125 49.69921875 -12.4375 M 42.3447265625 -22.044921875 Q 39.9052734375 -22.044921875 38.9462890625 -21.0859375 Q 37.9873046875 -20.126953125 37.9873046875 -17.7255859375 Q 37.9873046875 -15.23046875 38.9375 -14.2529296875 Q 39.88671875 -13.275390625 42.2138671875 -13.275390625 L 46.5146484375 -13.2939453125 Q 47.9677734375 -13.2939453125 48.7958984375 -13.787109375 Q 49.625 -14.28125 49.9599609375 -15.2587890625 Q 50.294921875 -16.236328125 50.294921875 -17.7255859375 Q 50.294921875 -20.126953125 49.345703125 -21.0859375 Q 48.3955078125 -22.044921875 45.95703125 -22.044921875 M 46.1796875 -1.955078125 Q 48.82421875 -1.955078125 49.857421875 -2.98828125 Q 50.890625 -4.021484375 50.890625 -6.6474609375 Q 50.890625 -9.2724609375 49.857421875 -10.2958984375 Q 48.82421875 -11.3203125 46.1796875 -11.3203125 L 41.9345703125 -11.3203125 Q 39.2724609375 -11.3203125 38.2392578125 -10.2958984375 Q 37.2060546875 -9.2724609375 37.2060546875 -6.6474609375 Q 37.2060546875 -4.021484375 38.2392578125 -2.98828125 Q 39.2724609375 -1.955078125 41.9345703125 -1.955078125" fill="black"></path></g><line stroke="red" stroke-width="1" x1="-319.9999999999999" x2="-423.9230484541325" y1="-332.55375505322445" y2="-272.5537550532245"></line> <line stroke="red" stroke-width="1" x1="-128.0" x2="-231.92304845413264" y1="0.0" y2="59.999999999999964"></line> <line marker-end="url(#dimension-arrow-head)" marker-start="url(#dimension-arrow-head)" stroke="red" stroke-width="1" x1="-419.76612651596724" x2="-227.76612651596733" y1="-274.9537550532245" y2="57.59999999999996"></line> <path d="M -418.93474212833416 -275.4337550532245 L -226.93474212833428 57.11999999999996"></path> <g transform="translate(-26.43896484375 15.85400390625) translate(-323.7661265159673 -108.67687752661226) rotate(-119.99999999999999 26.43896484375 -15.85400390625) rotate(180 26.43896484375 -15.85400390625) translate(0 -19.8175048828125)"><path d="M 6.6328125 -0.037109375 Q 3.4677734375 -0.037109375 1.84765625 -1.38671875 Q 0.228515625 -2.7373046875 0.0048828125 -5.6416015625 Q -0.0322265625 -6.1259765625 0.228515625 -6.3955078125 Q 0.48828125 -6.666015625 0.97265625 -6.666015625 Q 1.884765625 -6.666015625 1.9599609375 -5.697265625 Q 2.1455078125 -3.630859375 3.1982421875 -2.8115234375 Q 4.25 -1.9921875 6.6328125 -1.9921875 L 10.8779296875 -1.9921875 Q 13.541015625 -1.9921875 14.57421875 -3.025390625 Q 15.607421875 -4.05859375 15.607421875 -6.666015625 Q 15.607421875 -9.291015625 14.57421875 -10.32421875 Q 13.541015625 -11.357421875 10.8779296875 -11.357421875 L 7.43359375 -11.357421875 Q 6.447265625 -11.357421875 6.447265625 -12.326171875 Q 6.447265625 -13.3125 7.43359375 -13.3125 L 11.380859375 -13.3125 Q 13.447265625 -13.3310546875 14.2294921875 -14.4208984375 Q 15.01171875 -15.509765625 15.01171875 -17.6884765625 Q 15.01171875 -20.126953125 14.0625 -21.0859375 Q 13.1123046875 -22.044921875 10.654296875 -22.044921875 L 7.04296875 -22.044921875 Q 4.8828125 -22.044921875 3.9052734375 -21.2998046875 Q 2.927734375 -20.5556640625 2.7607421875 -18.693359375 Q 2.6484375 -17.7255859375 1.7548828125 -17.7255859375 Q 1.2705078125 -17.7255859375 1.009765625 -17.9951171875 Q 0.7490234375 -18.265625 0.8056640625 -18.7490234375 Q 1.009765625 -21.44921875 2.537109375 -22.724609375 Q 4.0634765625 -24.0 7.04296875 -24.0 L 10.654296875 -24.0 Q 13.9130859375 -24.0 15.439453125 -22.4736328125 Q 16.966796875 -20.9462890625 16.966796875 -17.6884765625 Q 16.966796875 -13.9453125 14.2666015625 -12.568359375 Q 15.9794921875 -11.841796875 16.771484375 -10.3798828125 Q 17.5625 -8.9189453125 17.5625 -6.666015625 Q 17.5625 -3.2392578125 15.9609375 -1.638671875 Q 14.3603515625 -0.037109375 10.8779296875 -0.037109375" fill="black"></path><path d="M 22.775390625 5.1015625 Q 22.1982421875 5.1015625 21.947265625 4.73828125 Q 21.6962890625 4.375 21.8447265625 3.8544921875 L 29.478515625 -25.84375 Q 29.646484375 -26.6064453125 30.4091796875 -26.6064453125 Q 31.005859375 -26.6064453125 31.2568359375 -26.2626953125 Q 31.5078125 -25.91796875 31.3779296875 -25.3408203125 L 23.7255859375 4.3564453125 Q 23.5576171875 5.1015625 22.775390625 5.1015625" fill="black"></path><path d="M 49.69921875 -12.4375 Q 52.845703125 -11.0224609375 52.845703125 -6.6474609375 Q 52.845703125 -3.2021484375 51.244140625 -1.6015625 Q 49.6435546875 0.0 46.1796875 0.0 L 41.9345703125 0.0 Q 38.4716796875 0.0 36.861328125 -1.6015625 Q 35.2509765625 -3.2021484375 35.2509765625 -6.6474609375 Q 35.2509765625 -11.078125 38.52734375 -12.4931640625 Q 36.0322265625 -14.001953125 36.0322265625 -17.7255859375 Q 36.0322265625 -20.96484375 37.5595703125 -22.482421875 Q 39.0859375 -24.0 42.3447265625 -24.0 L 45.95703125 -24.0 Q 49.21484375 -24.0 50.732421875 -22.482421875 Q 52.25 -20.96484375 52.25 -17.7255859375 Q 52.25 -13.908203125 49.69921875 -12.4375 M 42.3447265625 -22.044921875 Q 39.9052734375 -22.044921875 38.9462890625 -21.0859375 Q 37.9873046875 -20.126953125 37.9873046875 -17.7255859375 Q 37.9873046875 -15.23046875 38.9375 -14.2529296875 Q 39.88671875 -13.275390625 42.2138671875 -13.275390625 L 46.5146484375 -13.2939453125 Q 47.9677734375 -13.2939453125 48.7958984375 -13.787109375 Q 49.625 -14.28125 49.9599609375 -15.2587890625 Q 50.294921875 -16.236328125 50.294921875 -17.7255859375 Q 50.294921875 -20.126953125 49.345703125 -21.0859375 Q 48.3955078125 -22.044921875 45.95703125 -22.044921875 M 46.1796875 -1.955078125 Q 48.82421875 -1.955078125 49.857421875 -2.98828125 Q 50.890625 -4.021484375 50.890625 -6.6474609375 Q 50.890625 -9.2724609375 49.857421875 -10.2958984375 Q 48.82421875 -11.3203125 46.1796875 -11.3203125 L 41.9345703125 -11.3203125 Q 39.2724609375 -11.3203125 38.2392578125 -10.2958984375 Q 37.2060546875 -9.2724609375 37.2060546875 -6.6474609375 Q 37.2060546875 -4.021484375 38.2392578125 -2.98828125 Q 39.2724609375 -1.955078125 41.9345703125 -1.955078125" fill="black"></path></g></svg>